<svg xmlns="http://www.w3.org/2000/svg" width="1144px" height="769px" version="1.1"><defs /><g transform="translate(0.5 0.5)"><rect fill="#ffffff" pointer-events="none" stroke="#000000" x="81" y="101" width="100" height="40" /><path fill="none" pointer-events="none" stroke="#000000" stroke-dasharray="3,3" stroke-miterlimit="10" d="M 131 141 L 131 637" /><g font-family="Helvetica" font-size="12px" fill="#000000" text-anchor="middle"><text x="131" y="125">Program</text></g><rect fill="#ffffff" pointer-events="none" stroke="#000000" x="121" y="192" width="20" height="425" /><path fill="none" pointer-events="none" stroke="#000000" stroke-miterlimit="10" d="M 21 192 L 21 192 Q 21 192 31 192 L 121 192 Q 131 192 127 192 L 123 192" /><path fill="#000000" pointer-events="none" stroke="#000000" stroke-miterlimit="10" d="M 130 192 L 123 195 L 123 188 Z" /><g font-family="Helvetica" font-size="11px" fill="#000000" text-anchor="middle"><rect fill="#ffffff" stroke="none" stroke-width="0" x="64" y="176" width="26" height="14" /><text x="76" y="186">Main</text></g><rect fill="#ffffff" pointer-events="none" stroke="#000000" x="241" y="101" width="100" height="40" /><path fill="none" pointer-events="none" stroke="#000000" stroke-dasharray="3,3" stroke-miterlimit="10" d="M 291 141 L 291 767" /><g font-family="Helvetica" font-size="12px" fill="#000000" text-anchor="middle"><text x="291" y="125">:TimedService</text></g><rect fill="#ffffff" pointer-events="none" stroke="#000000" x="281" y="201" width="20" height="66" /><path fill="none" pointer-events="none" stroke="#000000" stroke-miterlimit="10" d="M 141 201 L 201 201 Q 211 201 221 201 L 273 201" /><path fill="#000000" pointer-events="none" stroke="#000000" stroke-miterlimit="10" d="M 280 201 L 273 205 L 273 198 Z" /><g font-family="Helvetica" font-size="11px" fill="#000000" text-anchor="middle"><rect fill="#ffffff" stroke="none" stroke-width="0" x="192" y="186" width="40" height="14" /><text x="211" y="195">OnStart</text></g><path fill="none" pointer-events="none" stroke="#000000" stroke-miterlimit="10" d="M 301 227 L 311 227 Q 321 227 321 237 L 321 242 Q 321 247 312 247 L 303 247" /><path fill="none" pointer-events="none" stroke="#000000" stroke-miterlimit="10" d="M 309 244 L 302 247 L 309 251" /><g font-family="Helvetica" font-size="11px" fill="#000000"><rect fill="#ffffff" stroke="none" stroke-width="0" x="303" y="231" width="205" height="14" /><text x="303" y="241">Add OnTimeEventProxy method to timers</text></g><rect fill="#ffffff" pointer-events="none" stroke="#000000" x="281" y="281" width="20" height="346" /><path fill="none" pointer-events="none" stroke="#000000" stroke-miterlimit="10" d="M 141 282 L 201 282 Q 211 282 221 282 L 273 282" /><path fill="#000000" pointer-events="none" stroke="#000000" stroke-miterlimit="10" d="M 280 282 L 273 286 L 273 279 Z" /><g font-family="Helvetica" font-size="11px" fill="#000000" text-anchor="middle"><rect fill="#ffffff" stroke="none" stroke-width="0" x="168" y="267" width="88" height="14" /><text x="211" y="276">RunFromConsole</text></g><path fill="none" pointer-events="none" stroke="#000000" stroke-miterlimit="10" d="M 301 326 L 311 326 Q 321 326 321 336 L 321 607 Q 321 617 312 617 L 303 617" /><path fill="none" pointer-events="none" stroke="#000000" stroke-miterlimit="10" d="M 309 614 L 302 617 L 309 621" /><g font-family="Helvetica" font-size="11px" fill="#000000"><rect fill="#ffffff" stroke="none" stroke-width="0" x="313" y="331" width="97" height="14" /><text x="313" y="341">OnTimeEventProxy</text></g><path fill="none" pointer-events="none" stroke="#000000" stroke-miterlimit="10" d="M 301 481 L 311 481 Q 321 481 321 491 L 321 496 Q 321 501 312 501 L 303 501" /><path fill="none" pointer-events="none" stroke="#000000" stroke-miterlimit="10" d="M 309 498 L 302 501 L 309 505" /><g font-family="Helvetica" font-size="11px" fill="#000000"><rect fill="#ffffff" stroke="none" stroke-width="0" x="303" y="485" width="143" height="14" /><text x="303" y="495">GetTimedCommandInstance</text></g><rect fill="#ffffff" pointer-events="none" stroke="#000000" x="447" y="101" width="150" height="40" /><path fill="none" pointer-events="none" stroke="#000000" stroke-dasharray="3,3" stroke-miterlimit="10" d="M 522 141 L 522 767" /><g font-family="Helvetica" font-size="12px" fill="#000000" text-anchor="middle"><text x="522" y="125">:ITimedServiceCommand</text></g><rect fill="#ffffff" pointer-events="none" stroke="#000000" x="512" y="539" width="19" height="80" /><path fill="none" pointer-events="none" stroke="#000000" stroke-miterlimit="10" d="M 301 553 L 397 553 Q 407 553 417 553 L 504 553" /><path fill="#000000" pointer-events="none" stroke="#000000" stroke-miterlimit="10" d="M 511 553 L 504 556 L 504 549 Z" /><g font-family="Helvetica" font-size="11px" fill="#000000" text-anchor="middle"><rect fill="#ffffff" stroke="none" stroke-width="0" x="365" y="537" width="84" height="14" /><text x="407" y="547">OnTimedService</text></g><rect fill="#ffffff" pointer-events="none" stroke="#000000" x="911" y="101" width="100" height="40" /><path fill="none" pointer-events="none" stroke="#000000" stroke-dasharray="3,3" stroke-miterlimit="10" d="M 961 141 L 961 767" /><g font-family="Helvetica" font-size="12px" fill="#000000" text-anchor="middle"><text x="961" y="125">:BasicLogger</text></g><rect fill="#ffffff" pointer-events="none" stroke="#000000" x="951" y="381" width="23" height="226" /><path fill="none" pointer-events="none" stroke="#000000" stroke-miterlimit="10" d="M 531 575 L 666 575 Q 676 575 686 575 L 813 575" /><path fill="#000000" pointer-events="none" stroke="#000000" stroke-miterlimit="10" d="M 820 575 L 813 579 L 813 572 Z" /><g font-family="Helvetica" font-size="11px" fill="#000000" text-anchor="middle"><rect fill="#ffffff" stroke="none" stroke-width="0" x="667" y="560" width="20" height="14" /><text x="676" y="569">Log</text></g><path fill="#ffffcc" pointer-events="none" stroke="#000000" stroke-miterlimit="10" d="M 1 1 L 321 1 L 351 31 L 351 62 L 1 62 L 1 1 Z" /><path fill="none" pointer-events="none" stroke="#000000" stroke-miterlimit="10" d="M 321 1 L 321 31 L 351 31" /><g font-family="Helvetica" font-size="12px" fill="#000000"><text x="3" y="22">UML rules:</text><text x="3" y="36">* Program is a static method so no column in the front.</text><text x="3" y="50">* :TimeService means any instance of the TimedService Class</text></g><rect fill="#ffffff" pointer-events="none" stroke="#000000" x="651" y="101" width="100" height="40" /><path fill="none" pointer-events="none" stroke="#000000" stroke-dasharray="3,3" stroke-miterlimit="10" d="M 701 141 L 701 767" /><g font-family="Helvetica" font-size="12px" fill="#000000" text-anchor="middle"><text x="701" y="125">:ILoggerFactory</text></g><rect fill="#ffffff" pointer-events="none" stroke="#000000" x="691" y="367" width="20" height="70" /><path fill="none" pointer-events="none" stroke="#000000" stroke-miterlimit="10" d="M 301 377 L 486 377 Q 496 377 506 377 L 683 377" /><path fill="#000000" pointer-events="none" stroke="#000000" stroke-miterlimit="10" d="M 690 377 L 683 381 L 683 374 Z" /><g font-family="Helvetica" font-size="11px" fill="#000000" text-anchor="middle"><rect fill="#ffffff" stroke="none" stroke-width="0" x="416" y="362" width="162" height="14" /><text x="496" y="371">ProduceLogger(commandName)</text></g><path fill="none" pointer-events="none" stroke="#000000" stroke-miterlimit="10" d="M 711 391 L 821 391 Q 831 391 841 391 L 943 391" /><path fill="#000000" pointer-events="none" stroke="#000000" stroke-miterlimit="10" d="M 950 391 L 943 395 L 943 388 Z" /><g font-family="Helvetica" font-size="11px" fill="#000000" text-anchor="middle"><rect fill="#ffffff" stroke="none" stroke-width="0" x="790" y="376" width="83" height="14" /><text x="831" y="385">Create(FilePath)</text></g><rect fill="#ffffff" pointer-events="none" stroke="#000000" x="1042" y="101" width="100" height="40" /><path fill="none" pointer-events="none" stroke="#000000" stroke-dasharray="3,3" stroke-miterlimit="10" d="M 1092 141 L 1092 767" /><g font-family="Helvetica" font-size="12px" fill="#000000" text-anchor="middle"><text x="1092" y="125">:BaseLogger</text></g><rect fill="#ffffff" pointer-events="none" stroke="#000000" x="782" y="101" width="100" height="40" /><path fill="none" pointer-events="none" stroke="#000000" stroke-dasharray="3,3" stroke-miterlimit="10" d="M 832 141 L 832 767" /><g font-family="Helvetica" font-size="12px" fill="#000000" text-anchor="middle"><text x="832" y="125">:ILogger</text></g><rect fill="#ffffff" pointer-events="none" stroke="#000000" x="822" y="567" width="20" height="40" /><path fill="none" pointer-events="none" stroke="#000000" stroke-miterlimit="10" d="M 973 414 L 1017 414 Q 1027 414 1037 414 L 1073 414" /><path fill="#000000" pointer-events="none" stroke="#000000" stroke-miterlimit="10" d="M 1080 414 L 1073 418 L 1073 411 Z" /><g font-family="Helvetica" font-size="11px" fill="#000000" text-anchor="middle"><rect fill="#ffffff" stroke="none" stroke-width="0" x="986" y="399" width="83" height="14" /><text x="1027" y="408">Create(FilePath)</text></g><path fill="none" pointer-events="none" stroke="#000000" stroke-dasharray="3,3" stroke-miterlimit="10" d="M 691 437 L 691 437 Q 691 437 681 437 L 311 437 Q 301 437 302 437 L 303 437" /><path fill="none" pointer-events="none" stroke="#000000" stroke-miterlimit="10" d="M 311 432 L 302 437 L 311 441" /><g font-family="Helvetica" font-size="11px" fill="#000000" text-anchor="middle"><rect fill="#ffffff" stroke="none" stroke-width="0" x="481" y="421" width="31" height="14" /><text x="496" y="431">return</text></g><rect fill="#ffffff" pointer-events="none" stroke="#000000" x="1081" y="396" width="20" height="211" /><path fill="none" pointer-events="none" stroke="#000000" stroke-miterlimit="10" d="M 842 587 L 887 587 Q 897 587 907 587 L 943 587" /><path fill="#000000" pointer-events="none" stroke="#000000" stroke-miterlimit="10" d="M 950 587 L 943 591 L 943 584 Z" /><g font-family="Helvetica" font-size="11px" fill="#000000" text-anchor="middle"><rect fill="#ffffff" stroke="none" stroke-width="0" x="887" y="572" width="20" height="14" /><text x="897" y="581">Log</text></g><path fill="none" pointer-events="none" stroke="#000000" stroke-miterlimit="10" d="M 972 597 L 1017 597 Q 1027 597 1037 597 L 1073 597" /><path fill="#000000" pointer-events="none" stroke="#000000" stroke-miterlimit="10" d="M 1080 597 L 1073 601 L 1073 594 Z" /><g font-family="Helvetica" font-size="11px" fill="#000000" text-anchor="middle"><rect fill="#ffffff" stroke="none" stroke-width="0" x="1017" y="582" width="20" height="14" /><text x="1027" y="591">Log</text></g></g></svg>